<svg width="90" height="32" viewBox="0 0 90 32" fill="none" xmlns="http://www.w3.org/2000/svg">
<path d="M70.5285 25.2106C69.9052 25.2106 69.2959 25.4028 68.7777 25.7629C68.2595 26.123 67.8556 26.6348 67.6171 27.2336C67.3786 27.8324 67.3161 28.4913 67.4377 29.127C67.5593 29.7627 67.8595 30.3466 68.3002 30.8049C68.7409 31.2632 69.3024 31.5753 69.9137 31.7017C70.525 31.8282 71.1586 31.7633 71.7344 31.5153C72.3102 31.2672 72.8024 30.8472 73.1487 30.3083C73.4949 29.7694 73.6798 29.1358 73.6798 28.4876C73.6784 27.6189 73.346 26.7862 72.7553 26.172C72.1646 25.5577 71.3638 25.212 70.5285 25.2106ZM70.5285 29.925C70.2551 29.9253 69.9877 29.8412 69.7602 29.6834C69.5328 29.5256 69.3554 29.3012 69.2506 29.0386C69.1458 28.776 69.1182 28.487 69.1714 28.208C69.2246 27.9291 69.3561 27.6729 69.5494 27.4718C69.7427 27.2706 69.9889 27.1336 70.2571 27.078C70.5252 27.0224 70.8032 27.0508 71.0558 27.1596C71.3085 27.2683 71.5244 27.4526 71.6764 27.689C71.8283 27.9254 71.9094 28.2033 71.9094 28.4876C71.9096 28.6764 71.874 28.8633 71.8047 29.0378C71.7354 29.2123 71.6337 29.3708 71.5055 29.5044C71.3772 29.638 71.2249 29.744 71.0573 29.8164C70.8897 29.8888 70.71 29.9262 70.5285 29.9263V29.925ZM80.2865 25.2106C79.6632 25.2106 79.054 25.4028 78.5358 25.7629C78.0175 26.123 77.6136 26.6348 77.3751 27.2336C77.1366 27.8324 77.0742 28.4913 77.1958 29.127C77.3174 29.7627 77.6175 30.3466 78.0582 30.8049C78.4989 31.2632 79.0604 31.5753 79.6717 31.7017C80.283 31.8282 80.9166 31.7633 81.4925 31.5153C82.0683 31.2672 82.5604 30.8472 82.9067 30.3083C83.253 29.7694 83.4378 29.1358 83.4378 28.4876C83.4364 27.6189 83.104 26.7862 82.5133 26.172C81.9226 25.5577 81.1219 25.212 80.2865 25.2106ZM80.2865 29.925C80.0131 29.925 79.7459 29.8407 79.5186 29.6828C79.2913 29.5248 79.1142 29.3003 79.0095 29.0377C78.9049 28.7751 78.8775 28.4861 78.9309 28.2072C78.9842 27.9284 79.1159 27.6723 79.3092 27.4713C79.5025 27.2703 79.7487 27.1334 80.0169 27.0779C80.285 27.0225 80.5629 27.0509 80.8155 27.1597C81.068 27.2685 81.2839 27.4527 81.4358 27.6891C81.5876 27.9255 81.6687 28.2034 81.6687 28.4876C81.6689 28.6765 81.6332 28.8636 81.5638 29.0381C81.4945 29.2126 81.3927 29.3713 81.2643 29.5049C81.1359 29.6385 80.9835 29.7445 80.8157 29.8168C80.648 29.8891 80.4681 29.9263 80.2865 29.9263V29.925ZM19.8228 12.6225C20.1311 13.3846 20.2895 14.2032 20.2886 15.03V24.4588H17.1819V15.03C17.1873 14.6402 17.1163 14.2534 16.9732 13.8931C16.8383 13.5471 16.6359 13.2339 16.3788 12.9732C16.1277 12.7099 15.8339 12.4949 15.5108 12.3379C15.1726 12.189 14.809 12.1122 14.4417 12.1122C14.0744 12.1122 13.7108 12.189 13.3726 12.3379C13.0412 12.4885 12.7409 12.7043 12.4881 12.9732C12.2397 13.2413 12.0385 13.5526 11.8937 13.8931C11.7491 14.2529 11.678 14.6401 11.685 15.03V24.4588H8.6177V15.03C8.62311 14.6402 8.55208 14.2534 8.40897 13.8931C8.26408 13.5516 8.06245 13.2393 7.81333 12.9706C7.54452 12.7193 7.24126 12.511 6.91351 12.3525C6.57528 12.2035 6.21172 12.1268 5.84441 12.1268C5.47711 12.1268 5.11354 12.2035 4.77532 12.3525C4.4439 12.5031 4.14356 12.7188 3.89077 12.9878C3.64235 13.2558 3.44116 13.5672 3.2964 13.9076C3.15182 14.2675 3.08074 14.6546 3.08768 15.0446V24.4734H2.81894e-05V15.03C-0.00243089 14.203 0.156021 13.3841 0.465848 12.6225C1.05399 11.1482 2.1624 9.96377 3.56368 9.31235C4.33274 8.95994 5.16778 8.7906 6.00782 8.81671C6.84787 8.84281 7.6717 9.0637 8.41915 9.46324C9.06573 9.81405 9.64505 10.2851 10.1284 10.8529C10.6147 10.2885 11.1929 9.81761 11.8364 9.46191C12.5853 9.05808 13.412 8.83482 14.2553 8.8087C15.0985 8.78258 15.9365 8.95427 16.7072 9.31103C17.3987 9.63279 18.026 10.0867 18.5565 10.6491C19.0986 11.2145 19.5288 11.8849 19.8228 12.6225ZM47.8929 8.91662H48.2633V12.1765H47.8929C47.2173 12.1692 46.5464 12.294 45.9151 12.5444C45.3228 12.7774 44.7776 13.1235 44.3076 13.5649C43.8592 13.99 43.4936 14.5009 43.2309 15.0697C42.976 15.6344 42.8455 16.2512 42.8491 16.875V24.4985H39.6774V16.875C39.6758 15.801 39.9009 14.7397 40.3367 13.766C40.7592 12.8111 41.3602 11.9532 42.1045 11.2421C42.8707 10.5248 43.7521 9.95322 44.7086 9.55324C45.7161 9.11471 46.7995 8.89622 47.8917 8.91132L47.8929 8.91662ZM55.2073 16.4118L62.6032 24.4694H58.1639L52.9088 18.7941V24.4787H49.7728V2.74235H52.9075V14.044L57.5275 8.89412H61.9643L55.2073 16.4118ZM33.9056 10.6663C32.7045 9.74388 31.2509 9.24573 29.7578 9.24485C28.8104 9.23765 27.8727 9.44306 27.0087 9.84706C25.2587 10.6875 23.8887 12.1985 23.1848 14.0646C22.4809 15.9306 22.4975 18.0073 23.2312 19.8609C23.5848 20.7591 24.1036 21.5769 24.7585 22.2684C25.4041 22.9509 26.1674 23.5009 27.0087 23.8897C27.8727 24.2937 28.8104 24.4991 29.7578 24.4919C31.2522 24.4997 32.7084 24.0006 33.9056 23.0704V24.4747H36.9093V8.82662H33.9056V10.6663ZM29.7896 21.4994C28.9036 21.5257 28.0302 21.2766 27.2811 20.7839C26.532 20.2911 25.9413 19.5772 25.5845 18.7334C25.2277 17.8896 25.1212 16.9543 25.2784 16.0472C25.4356 15.1401 25.8495 14.3023 26.4672 13.6412C27.0848 12.98 27.878 12.5255 28.7454 12.3358C29.6128 12.1461 30.5149 12.2297 31.3363 12.5761C32.1577 12.9225 32.8611 13.5159 33.3564 14.2802C33.8517 15.0446 34.1165 15.9453 34.1169 16.8671C34.1325 18.0777 33.6857 19.2454 32.8744 20.1138C32.0632 20.9823 30.9537 21.4806 29.7896 21.4994ZM69.5307 15.8149C69.8758 15.5021 70.2737 15.2584 70.7041 15.0962C71.1604 14.9139 71.6459 14.824 72.1347 14.8315C72.6233 14.8255 73.1086 14.9153 73.5652 15.0962C73.9926 15.265 74.3894 15.508 74.7387 15.8149C75.071 16.1094 75.3396 16.4739 75.5265 16.8843C75.7181 17.297 75.8177 17.7495 75.8177 18.2078C75.8177 18.6661 75.7181 19.1186 75.5265 19.5313C75.3358 19.9443 75.068 20.3137 74.7387 20.6179C74.3903 20.9304 73.9935 21.1792 73.5652 21.3538C73.1089 21.5361 72.6234 21.6259 72.1347 21.6185C71.6461 21.6245 71.1608 21.5347 70.7041 21.3538C70.2728 21.1855 69.875 20.9361 69.5307 20.6179C69.1978 20.3171 68.9294 19.9469 68.7428 19.5313C68.5512 19.1186 68.4517 18.6661 68.4517 18.2078C68.4517 17.7495 68.5512 17.297 68.7428 16.8843C68.9301 16.4737 69.1991 16.1092 69.5319 15.8149H69.5307ZM70.0614 9.96353C69.8914 9.58469 69.8465 9.15806 69.9337 8.74997C70.021 8.34187 70.2354 7.97518 70.5437 7.70691C70.7517 7.5178 70.9916 7.37059 71.2514 7.27279C71.5295 7.16614 71.823 7.10974 72.1194 7.10603C72.4165 7.10151 72.7115 7.15819 72.9874 7.27279C73.2471 7.37062 73.4871 7.51782 73.695 7.70691C73.8951 7.88968 74.059 8.11133 74.1774 8.35941C74.347 8.73866 74.3912 9.16557 74.3033 9.57369C74.2154 9.98182 74.0002 10.3483 73.6912 10.616C73.4833 10.8051 73.2433 10.9523 72.9836 11.0501C72.7055 11.1568 72.4119 11.2132 72.1156 11.2169C71.8184 11.223 71.5231 11.1662 71.2476 11.0501C70.9861 10.9562 70.7454 10.8086 70.5399 10.616C70.3366 10.4374 70.1732 10.2147 70.0614 9.96353ZM89.8689 7.52294L85.7045 21.4663C84.5476 24.4919 84.6863 24.4919 82.8752 24.4919H72.1525C73.0588 24.4968 73.9582 24.3267 74.8049 23.9903C75.6019 23.6793 76.3373 23.219 76.9749 22.6324C77.5903 22.0757 78.0882 21.3925 78.4372 20.6259C78.7902 19.8649 78.9717 19.0302 78.968 18.1853C78.9701 17.0611 78.639 15.9634 78.0198 15.0419C77.3928 14.1015 76.5612 13.3283 75.5927 12.7853C76.1188 12.3471 76.5543 11.8028 76.873 11.1851C77.2085 10.5616 77.3839 9.85874 77.3821 9.14427C77.3869 8.49631 77.2493 7.85578 76.98 7.27147C76.71 6.68846 76.333 6.166 75.8701 5.73353C75.3836 5.28662 74.823 4.93546 74.2156 4.69721C72.8879 4.18437 71.4273 4.18437 70.0996 4.69721C69.4904 4.93155 68.9291 5.28312 68.445 5.73353C67.9757 6.16219 67.5954 6.68597 67.3276 7.27279C67.0565 7.85649 66.9189 8.49744 66.9254 9.14559C66.9269 9.84873 67.1022 10.5396 67.4345 11.1521C67.7585 11.7698 68.1901 12.3195 68.7072 12.7734C67.7121 13.2747 66.863 14.042 66.247 14.9969C65.6396 15.9349 65.32 17.0425 65.3306 18.1734C65.3249 19.0185 65.5065 19.8537 65.8614 20.614C66.217 21.3775 66.7154 22.0596 67.3276 22.6204C67.9703 23.1987 68.7045 23.6568 69.4976 23.9744C70.3434 24.3138 71.2433 24.4839 72.1499 24.476H67.3276C67.0736 24.4682 66.8292 24.374 66.6317 24.2079C66.4342 24.0417 66.2946 23.8128 66.2343 23.5562C66.2343 23.539 66.2177 23.539 66.2177 23.5231L66.1821 23.4053C66.1821 23.3881 66.1656 23.355 66.1656 23.3378V23.3047L61.6703 2.77941H57.9093C57.5663 2.768 57.2417 2.61555 57.0067 2.3555C56.7716 2.09546 56.6454 1.74907 56.6557 1.39235C56.6499 1.21528 56.6778 1.03877 56.7377 0.872911C56.7976 0.707054 56.8884 0.555111 57.0048 0.425782C57.1213 0.296452 57.2611 0.192275 57.4163 0.119214C57.5715 0.0461523 57.7391 0.0056414 57.9093 0H62.9417C63.6328 0 64.035 0.567794 64.1954 1.38706L64.8546 4.32927H87.8109C88.1694 4.34841 88.5186 4.45425 88.8308 4.63837C89.143 4.82248 89.4096 5.0798 89.6094 5.38987C89.8092 5.69993 89.9367 6.05419 89.9818 6.42449C90.0268 6.79478 89.9882 7.1709 89.8689 7.52294Z" fill="white"/>
</svg>
